<svg xmlns="http://www.w3.org/2000/svg" width="18" height="20.999" viewBox="0 0 18 20.999">
  <path id="Icon_awesome-calendar-alt" data-name="Icon awesome-calendar-alt" d="M0,19.03A1.949,1.949,0,0,0,1.929,21H16.071A1.949,1.949,0,0,0,18,19.03V7.875H0Zm12.857-8.039a.489.489,0,0,1,.482-.492h1.607a.489.489,0,0,1,.482.492v1.641a.489.489,0,0,1-.482.492H13.339a.489.489,0,0,1-.482-.492Zm0,5.25a.489.489,0,0,1,.482-.492h1.607a.489.489,0,0,1,.482.492v1.641a.489.489,0,0,1-.482.492H13.339a.489.489,0,0,1-.482-.492Zm-5.143-5.25A.489.489,0,0,1,8.2,10.5H9.8a.489.489,0,0,1,.482.492v1.641a.489.489,0,0,1-.482.492H8.2a.489.489,0,0,1-.482-.492Zm0,5.25a.489.489,0,0,1,.482-.492H9.8a.489.489,0,0,1,.482.492v1.641a.489.489,0,0,1-.482.492H8.2a.489.489,0,0,1-.482-.492Zm-5.143-5.25a.489.489,0,0,1,.482-.492H4.661a.489.489,0,0,1,.482.492v1.641a.489.489,0,0,1-.482.492H3.054a.489.489,0,0,1-.482-.492Zm0,5.25a.489.489,0,0,1,.482-.492H4.661a.489.489,0,0,1,.482.492v1.641a.489.489,0,0,1-.482.492H3.054a.489.489,0,0,1-.482-.492Zm13.5-13.617H14.143V.656A.652.652,0,0,0,13.5,0H12.214a.652.652,0,0,0-.643.656V2.625H6.429V.656A.652.652,0,0,0,5.786,0H4.5a.652.652,0,0,0-.643.656V2.625H1.929A1.949,1.949,0,0,0,0,4.594V6.562H18V4.594A1.949,1.949,0,0,0,16.071,2.625Z" fill="#2b2d41"/>
</svg>
