<svg id="Layer_1" data-name="Layer 1" xmlns="http://www.w3.org/2000/svg" xmlns:xlink="http://www.w3.org/1999/xlink" viewBox="0 0 346.14 294.3"><defs><style>.cls-1{fill:url(#linear-gradient);}.cls-2{fill:none;stroke:#fff;stroke-miterlimit:10;stroke-width:0.5px;}.cls-3{fill:#ffb005;}.cls-4{fill:url(#linear-gradient-2);}</style><linearGradient id="linear-gradient" x1="43.66" y1="33.25" x2="231.68" y2="230.27" gradientUnits="userSpaceOnUse"><stop offset="0" stop-color="#74c0fc"/><stop offset="0.03" stop-color="#6cb9f7"/><stop offset="0.15" stop-color="#4d9ee3"/><stop offset="0.28" stop-color="#3489d2"/><stop offset="0.42" stop-color="#227ac7"/><stop offset="0.57" stop-color="#1771c0"/><stop offset="0.74" stop-color="#146ebe"/></linearGradient><linearGradient id="linear-gradient-2" x1="4.67" y1="216.93" x2="277.01" y2="216.93" gradientUnits="userSpaceOnUse"><stop offset="0" stop-color="#74c0fc"/><stop offset="0.08" stop-color="#7aa6f6"/><stop offset="0.19" stop-color="#8287ef"/><stop offset="0.32" stop-color="#886ee9"/><stop offset="0.44" stop-color="#8d5ce5"/><stop offset="0.58" stop-color="#8f51e3"/><stop offset="0.74" stop-color="#904ee2"/></linearGradient></defs><path class="cls-1" d="M277,43.77v46l-95.37,95.38L122.3,118.39,4.67,242.37V43.77A39.82,39.82,0,0,1,44.5,4H237.19A39.82,39.82,0,0,1,277,43.77Z"/><line class="cls-2" x1="40.67" y1="4.75" x2="40.67" y2="204.88"/><line class="cls-2" x1="91.64" y1="4.75" x2="91.64" y2="152.15"/><line class="cls-2" x1="142.62" y1="4.75" x2="142.62" y2="145.72"/><line class="cls-2" x1="193.59" y1="4.75" x2="193.59" y2="164.37"/><line class="cls-2" x1="243.24" y1="4.75" x2="243.24" y2="120"/><line class="cls-2" x1="276.34" y1="42.76" x2="4.64" y2="42.76"/><line class="cls-2" x1="276.34" y1="93.73" x2="4.64" y2="93.73"/><line class="cls-2" x1="105.28" y1="144.7" x2="4.64" y2="144.7"/><line class="cls-2" x1="276.34" y1="144.7" x2="134.21" y2="144.7"/><line class="cls-2" x1="48.04" y1="195.67" x2="4.64" y2="195.67"/><path class="cls-3" d="M341.74,27.6,336.52,139,295.67,98.16c-34.08,31.21-115.82,106.07-115.41,105.68l-58.84-72.37L5,242.28l110.8-130.07,6.06-7,59.46,61.24,87.26-95.3L230.34,32.82Z"/><path class="cls-4" d="M277,143.81v98.76a47,47,0,0,1-47,47H4.67v.44L122.3,172.43l59.34,66.76Z"/></svg>